M48
;DRILL file {KiCad (2018-01-10 revision 7e6a654)-master} date 2018 February 04, Sunday 00:48:23
;FORMAT={-:-/ absolute / inch / decimal}
FMAT,2
INCH,TZ
T1C0.0100
T2C0.0331
T3C0.0335
T4C0.0339
T5C0.0374
T6C0.0394
T7C0.0453
T8C0.0945
T9C0.0984
%
G90
G05
M72
T1
X3.6496Y-3.122
X3.6496Y-3.2205
X3.6496Y-3.9882
X3.6496Y-4.0827
X3.7126Y-4.0689
X3.8504Y-3.8819
X3.8504Y-3.9685
X3.8543Y-3.9252
X3.8583Y-3.8189
X3.8602Y-3.0886
X3.878Y-3.8031
X3.8819Y-3.5079
X3.8819Y-3.5669
X3.8819Y-3.626
X3.8819Y-3.685
X3.8819Y-3.7441
X3.8858Y-3.3307
X3.8858Y-3.3898
X3.8858Y-3.4488
X3.8976Y-3.815
X3.9134Y-3.3307
X3.9134Y-3.3898
X3.9134Y-3.5079
X3.9134Y-3.5669
X3.9134Y-3.626
X3.9134Y-3.7441
X3.9173Y-3.4488
X3.9173Y-3.685
X3.9173Y-3.8031
X3.9508Y-4.0689
X3.9823Y-4.0059
X4.0453Y-3.9843
X4.0709Y-3.2244
X4.0728Y-2.9843
X4.0863Y-3.1378
X4.0984Y-2.9055
X4.1004Y-4.0098
X4.1004Y-4.0472
X4.1181Y-3.1378
X4.1181Y-3.2283
X4.1181Y-3.3898
X4.1181Y-3.5079
X4.1181Y-3.6575
X4.1181Y-3.6969
X4.1181Y-3.7362
X4.1378Y-2.9449
X4.1575Y-3.3898
X4.1575Y-3.5079
X4.1575Y-3.6575
X4.1575Y-3.6969
X4.1575Y-3.7362
X4.1654Y-3.1339
X4.1654Y-3.2323
X4.1693Y-4.1299
X4.1969Y-3.1378
X4.1969Y-3.4685
X4.1969Y-3.5079
X4.1969Y-3.6969
X4.1969Y-3.7362
X4.2165Y-3.2244
X4.2362Y-3.6969
X4.2598Y-4.1299
X4.2638Y-3.1339
X4.2677Y-3.7362
X4.2717Y-3.3228
X4.2756Y-3.6969
X4.3051Y-4.0886
X4.3071Y-3.7362
X4.3091Y-3.9961
X4.311Y-3.1339
X4.315Y-2.9843
X4.315Y-3.4685
X4.315Y-3.6969
X4.3366Y-4.1181
X4.3465Y-3.5079
X4.3465Y-3.7362
X4.3504Y-3.2559
X4.3583Y-3.1339
X4.3583Y-3.2168
X4.3622Y-4.1201
X4.3858Y-3.3898
X4.3858Y-3.5079
X4.3858Y-3.6969
X4.3858Y-3.7362
X4.3898Y-3.6614
X4.4016Y-4.1161
X4.4055Y-3.1339
X4.4055Y-3.2165
X4.4114Y-4.0846
X4.4252Y-3.3898
X4.4252Y-3.5079
X4.4252Y-3.6575
X4.4252Y-3.6969
X4.4252Y-3.7362
X4.437Y-2.9567
X4.4528Y-3.1339
X4.4528Y-3.2165
X4.4626Y-4.122
X4.4724Y-2.9567
X4.4738Y-3.2228
X4.498Y-3.4193
X4.5Y-4.1201
X4.5039Y-3.1339
X4.5099Y-3.3032
X4.5276Y-3.378
X4.5512Y-4.0197
X4.5571Y-4.1181
X4.5591Y-3.3622
X4.565Y-3.5945
X4.5689Y-3.4862
X4.5728Y-3.1398
X4.5728Y-3.5669
X4.5787Y-3.4272
X4.5787Y-4.0197
X4.5807Y-3.4508
X4.5807Y-3.6496
X4.5827Y-3.7008
X4.5846Y-3.2795
X4.5866Y-3.752
X4.5925Y-4.1181
X4.5984Y-3.1398
X4.6024Y-3.3425
X4.6024Y-4.0197
X4.6122Y-3.8996
X4.6142Y-3.7717
X4.6142Y-3.9921
X4.6161Y-3.813
X4.6201Y-3.8563
X4.628Y-3.2776
X4.6299Y-4.1161
X4.6398Y-3.813
X4.6417Y-3.8996
X4.642Y-3.8563
X4.6496Y-3.3386
X4.6496Y-3.9921
X4.6614Y-3.2835
X4.6654Y-3.1398
X4.6693Y-3.4272
X4.6732Y-3.7008
X4.6752Y-4.0689
X4.6772Y-3.4488
X4.6772Y-3.4921
X4.6772Y-3.6063
X4.6772Y-3.7894
X4.6791Y-3.3543
X4.6791Y-4.
X4.6929Y-3.1398
X4.6929Y-3.6614
X4.7165Y-4.0669
X4.7296Y-3.2136
X4.7303Y-3.4055
X4.7362Y-4.0079
X4.7402Y-3.4488
X4.7402Y-3.4803
X4.7402Y-3.5118
X4.7402Y-3.5433
X4.7402Y-3.5748
X4.7402Y-3.7323
X4.7402Y-3.7638
X4.7402Y-3.7953
X4.7402Y-3.8268
X4.7402Y-3.8898
X4.7402Y-3.9213
X4.7402Y-3.9528
X4.7441Y-3.2756
X4.748Y-4.0709
X4.7638Y-3.1378
X4.7677Y-3.0512
X4.7717Y-3.5433
X4.7717Y-3.6063
X4.7717Y-3.6693
X4.7717Y-3.7014
X4.7717Y-3.7638
X4.7717Y-3.8268
X4.7717Y-3.9528
X4.772Y-3.8586
X4.7756Y-3.2795
X4.7835Y-4.0039
X4.7874Y-3.1378
X4.8031Y-3.2717
X4.8031Y-3.4803
X4.8031Y-3.5433
X4.8031Y-3.7638
X4.8031Y-3.8583
X4.8031Y-3.8898
X4.8031Y-3.9213
X4.8071Y-4.0748
X4.8346Y-3.8898
X4.8386Y-3.2323
X4.8425Y-3.5906
X4.8425Y-3.6614
X4.8425Y-3.689
X4.8425Y-4.0709
X4.8465Y-3.5276
X4.8504Y-3.9961
X4.8563Y-3.1398
X4.8681Y-3.0512
X4.878Y-3.626
X4.878Y-4.0118
X4.8819Y-3.1398
X4.8819Y-3.4685
X4.8858Y-3.7165
X4.8976Y-4.0276
X4.9016Y-3.2638
X4.9016Y-4.0669
X4.9134Y-3.7362
X4.9173Y-3.4646
X4.9173Y-3.6457
X4.9252Y-4.0709
X4.9272Y-3.5118
X4.9291Y-3.7953
X4.9469Y-3.2134
X4.9469Y-4.065
X4.9488Y-3.1398
X4.9528Y-3.2835
X4.9528Y-3.378
X4.9606Y-3.4803
X4.9606Y-3.5433
X4.9606Y-3.6693
X4.9606Y-3.7323
X4.9606Y-3.7953
X4.9606Y-3.8268
X4.9606Y-3.8898
X4.9606Y-3.9213
X4.9705Y-4.065
X4.9744Y-3.1398
X4.9921Y-3.6693
X4.9921Y-3.8268
X4.9961Y-3.2835
X4.9961Y-3.378
X5.Y-4.0669
X5.0157Y-3.2598
X5.0276Y-4.0669
X5.0315Y-3.4528
X5.0315Y-3.4961
X5.0315Y-3.5276
X5.0315Y-3.5591
X5.0315Y-3.5906
X5.0315Y-3.748
X5.0315Y-3.7795
X5.0315Y-3.811
X5.0315Y-3.8425
X5.0315Y-3.874
X5.0315Y-3.9055
X5.0315Y-3.937
X5.0394Y-3.2835
X5.0394Y-3.378
X5.0394Y-3.6693
X5.0509Y-4.065
X5.063Y-3.937
X5.0669Y-3.4803
X5.0669Y-3.685
X5.0669Y-3.7323
X5.0728Y-4.065
X5.0787Y-3.5583
X5.0827Y-3.1755
X5.0827Y-3.2835
X5.0827Y-3.378
X5.0827Y-3.9094
X5.0877Y-3.816
X5.0945Y-4.0709
X5.0984Y-3.2168
X5.11Y-3.8309
X5.1142Y-3.2008
X5.1181Y-3.7402
X5.1201Y-4.3051
X5.122Y-3.3819
X5.122Y-4.0669
X5.126Y-3.0197
X5.126Y-3.9055
X5.1339Y-3.185
X5.1339Y-3.4803
X5.1339Y-3.7205
X5.1378Y-3.5118
X5.1378Y-3.8346
X5.1417Y-4.065
X5.1457Y-3.8036
X5.1535Y-3.9488
X5.1575Y-3.2087
X5.1575Y-3.4764
X5.1654Y-3.2559
X5.1693Y-3.8346
X5.1772Y-3.811
X5.1811Y-3.1929
X5.1929Y-3.8976
X5.1929Y-3.9213
X5.1969Y-3.7598
X5.2028Y-4.0827
X5.2047Y-3.8071
X5.2087Y-3.185
X5.2087Y-4.0374
X5.2205Y-3.8268
X5.2283Y-3.3189
X5.2283Y-3.3504
X5.2283Y-3.4449
X5.2283Y-3.4764
X5.2283Y-3.5079
X5.2283Y-3.5709
X5.2283Y-3.6024
X5.2283Y-3.6339
X5.2283Y-3.6969
X5.2283Y-3.7283
X5.2283Y-3.9724
X5.2362Y-3.0236
X5.2373Y-3.9298
X5.2441Y-3.1654
X5.2441Y-3.815
X5.2559Y-3.8346
X5.2598Y-3.4764
X5.2598Y-3.5079
X5.2598Y-3.5394
X5.2598Y-3.5709
X5.2598Y-3.6024
X5.2598Y-3.6654
X5.2598Y-3.6969
X5.2598Y-3.7283
X5.2618Y-3.1319
X5.2638Y-4.0709
X5.2697Y-4.2205
X5.2795Y-4.0906
X5.2835Y-3.1201
X5.2913Y-3.3189
X5.2913Y-3.3504
X5.2913Y-3.4449
X5.2913Y-3.4764
X5.2913Y-3.5394
X5.2913Y-3.5709
X5.2913Y-3.6024
X5.2913Y-3.6339
X5.2913Y-3.6654
X5.2913Y-3.6969
X5.2913Y-3.7283
X5.2953Y-3.0512
X5.3012Y-3.0866
X5.3031Y-3.8504
X5.311Y-4.0039
X5.3228Y-3.3189
X5.3228Y-3.3504
X5.3228Y-3.4449
X5.3228Y-3.4764
X5.3228Y-3.5079
X5.3228Y-3.5394
X5.3228Y-3.5709
X5.3228Y-3.6024
X5.3228Y-3.6339
X5.3228Y-3.6654
X5.3228Y-3.6969
X5.3228Y-3.9252
X5.3228Y-3.9764
X5.336Y-3.9939
X5.3366Y-4.128
X5.3425Y-3.8622
X5.3543Y-3.3189
X5.3543Y-3.3504
X5.3543Y-3.4764
X5.3543Y-3.5394
X5.3543Y-3.5709
X5.3543Y-3.6024
X5.3543Y-3.6339
X5.3543Y-3.6654
X5.3543Y-3.6969
X5.3543Y-3.7283
X5.3661Y-4.0591
X5.3701Y-4.1319
X5.3737Y-3.8504
X5.378Y-3.9646
X5.3819Y-3.1339
X5.3819Y-4.0315
X5.3858Y-3.3504
X5.3858Y-3.4134
X5.3858Y-3.4764
X5.3858Y-3.5079
X5.3858Y-3.5709
X5.3858Y-3.6024
X5.3858Y-3.6339
X5.3858Y-3.8307
X5.3898Y-3.8071
X5.3898Y-3.9173
X5.3957Y-4.122
X5.4094Y-3.1791
X5.4173Y-3.3497
X5.4173Y-3.5394
X5.4173Y-3.5709
X5.4173Y-3.6969
X5.4193Y-4.1083
X5.4291Y-3.9646
X5.439Y-3.8071
X5.4409Y-3.1831
X5.4409Y-3.8701
X5.4409Y-3.9213
X5.4488Y-3.4134
X5.4488Y-3.4449
X5.4488Y-3.4764
X5.4488Y-3.5079
X5.4488Y-3.5394
X5.4488Y-3.5715
X5.4488Y-3.6024
X5.4488Y-3.6339
X5.4488Y-3.7598
X5.4567Y-3.0748
X5.4606Y-3.1299
X5.4685Y-2.8898
X5.4685Y-3.1063
X5.4685Y-3.1496
X5.4783Y-3.8071
X5.4803Y-3.4449
X5.4803Y-3.5079
X5.4803Y-3.5394
X5.4803Y-3.6024
X5.4803Y-3.729
X5.4803Y-3.8661
X5.4921Y-3.0394
X5.498Y-4.1063
X5.5059Y-2.9665
X5.5118Y-3.3504
X5.5118Y-3.3819
X5.5118Y-3.4134
X5.5118Y-3.4449
X5.5118Y-3.4764
X5.5118Y-3.5079
X5.5118Y-3.5394
X5.5118Y-3.6024
X5.5118Y-3.6339
X5.5315Y-3.0394
X5.5335Y-3.9094
X5.5374Y-4.1063
X5.5433Y-3.3819
X5.5433Y-3.4134
X5.5433Y-3.4449
X5.5433Y-3.4764
X5.5433Y-3.5079
X5.5433Y-3.5709
X5.5433Y-3.6339
X5.5433Y-3.6975
X5.5433Y-3.7283
X5.5551Y-3.1063
X5.5551Y-3.1496
X5.5591Y-3.9508
X5.5591Y-4.
X5.5748Y-3.4449
X5.5748Y-3.5079
X5.5748Y-3.5394
X5.5748Y-3.5709
X5.5748Y-3.6024
X5.5748Y-3.6654
X5.5748Y-3.6969
X5.5748Y-3.8524
X5.6043Y-4.1319
X5.6055Y-3.6025
X5.6063Y-3.189
X5.6063Y-3.3504
X5.6063Y-3.3819
X5.6063Y-3.4134
X5.6063Y-3.4449
X5.6063Y-3.4764
X5.6063Y-3.5079
X5.6063Y-3.5394
X5.6063Y-3.5709
X5.6063Y-3.6339
X5.6063Y-3.7283
X5.6063Y-3.7598
X5.626Y-3.1555
X5.6378Y-3.3504
X5.6378Y-3.3819
X5.6378Y-3.4134
X5.6378Y-3.4764
X5.6378Y-3.5079
X5.6378Y-3.5394
X5.6378Y-3.6024
X5.6378Y-3.6339
X5.6575Y-3.1634
X5.6713Y-3.7933
X5.6752Y-3.8622
X5.6988Y-3.935
X5.7008Y-3.2559
X5.7087Y-3.7126
X5.7362Y-3.6299
X5.7441Y-3.6811
X5.7972Y-2.9882
X5.8031Y-3.0354
X5.8031Y-3.0807
X5.8031Y-3.1299
X5.8051Y-4.1358
X5.813Y-4.0315
X5.8268Y-3.0354
X5.8268Y-4.1083
X5.8287Y-2.9882
X5.8287Y-3.0807
X5.8307Y-3.1299
X5.8307Y-3.2382
X5.8346Y-3.6811
X5.8386Y-3.6378
X5.8386Y-4.2185
X5.8445Y-3.7461
X5.8504Y-3.7677
X5.8583Y-3.6732
X5.8583Y-4.131
X5.8622Y-4.1614
X5.872Y-3.1555
X5.8878Y-4.1083
X5.8937Y-3.5709
X5.9094Y-3.6772
X5.9213Y-3.5551
X5.9291Y-3.6024
X5.935Y-3.2146
X5.937Y-3.7323
X5.9409Y-3.8071
X5.9449Y-3.6772
X5.9488Y-3.1752
X5.9567Y-3.3307
X5.9567Y-3.7008
X5.9587Y-4.063
X5.9606Y-3.8543
X5.9606Y-3.8976
X5.9724Y-3.3071
X5.9783Y-3.8366
X5.9882Y-3.1949
X5.9882Y-3.4055
X5.9921Y-3.2441
X6.0059Y-3.7579
X6.0177Y-3.7776
X6.0197Y-3.2756
X6.0197Y-3.3268
X6.0197Y-3.4252
X6.0236Y-3.374
X6.0236Y-3.4882
X6.0276Y-3.7323
X6.0295Y-3.7084
X6.0354Y-3.7972
X6.0394Y-3.5236
X6.0413Y-3.2165
X6.0531Y-3.7205
X6.0669Y-3.5197
X6.0863Y-3.5748
X6.0945Y-3.5197
X6.1142Y-3.5672
X6.1142Y-3.6142
X6.1181Y-3.7972
X6.1181Y-3.8228
X6.1181Y-3.8484
X6.122Y-3.4252
X6.122Y-3.5197
X6.124Y-3.7323
X6.126Y-3.3268
X6.1378Y-3.5551
X6.1398Y-3.0354
X6.1417Y-3.0984
X6.1417Y-3.126
X6.1457Y-3.4252
X6.1496Y-3.3898
X6.1555Y-3.7323
X6.1654Y-3.5472
X6.1693Y-3.6496
X6.2008Y-3.1024
X6.2008Y-3.126
X6.2067Y-3.5492
X6.2126Y-3.6496
X6.2126Y-3.8268
X6.2165Y-4.1319
X6.2185Y-3.7835
X6.2362Y-4.2008
X6.2416Y-3.3656
X6.2416Y-3.4336
X6.2461Y-3.5453
X6.2598Y-3.1024
X6.2598Y-3.1299
X6.2638Y-3.6496
X6.2677Y-3.2756
X6.2874Y-3.5354
X6.3071Y-3.5551
X6.3095Y-3.3656
X6.3095Y-3.4336
X6.3189Y-3.0984
X6.3189Y-3.126
X6.3189Y-3.2008
X6.3189Y-3.2283
X6.3228Y-3.5354
X6.3465Y-3.2756
X6.3465Y-3.5236
X6.3583Y-3.9173
X6.3622Y-3.5906
X6.3622Y-3.6181
X6.374Y-4.1614
X6.378Y-3.0984
X6.378Y-3.1299
X6.3976Y-3.4291
X6.3976Y-3.4685
X6.4055Y-3.1969
X6.4094Y-3.9213
X6.4154Y-3.6654
X6.4272Y-3.7283
X6.437Y-3.0984
X6.437Y-3.126
X6.4567Y-3.9213
X6.4606Y-3.6713
X6.4646Y-3.2008
X6.4646Y-3.5866
X6.4902Y-4.2146
X6.4961Y-3.0748
X6.5039Y-3.9213
X6.5079Y-3.3071
X6.5079Y-3.4764
X6.5079Y-3.6693
X6.5394Y-4.0906
X6.5512Y-3.2008
X6.5512Y-3.5866
X6.5551Y-3.9252
X6.563Y-3.0748
X6.5787Y-4.1791
X6.6Y-2.8937
X6.6063Y-3.6673
X6.6063Y-3.7539
X6.6063Y-3.9213
X6.6142Y-3.2835
X6.6142Y-3.5354
X6.624Y-4.1063
X6.6555Y-3.6496
X6.6575Y-3.9173
X6.6673Y-4.2402
X6.6969Y-4.1043
X6.6969Y-4.3031
X6.6988Y-4.1772
X6.7008Y-2.8937
X6.7087Y-3.7697
X6.7087Y-3.9173
X6.7165Y-3.6654
X6.7382Y-4.1752
X6.7402Y-4.0965
X6.752Y-3.6614
X6.7598Y-3.0709
X6.7598Y-3.0945
X6.7598Y-3.122
X6.7638Y-3.9213
X6.7992Y-3.6614
X6.8071Y-3.9213
X6.8425Y-3.6634
X6.8543Y-4.1752
X6.8543Y-4.2126
X6.8622Y-4.1358
X7.Y-4.2323
X7.0472Y-4.2677
X7.0512Y-4.0787
X7.0787Y-4.1142
X7.0827Y-3.2362
X7.0866Y-3.3386
X7.0945Y-4.2244
X7.0984Y-4.2638
X7.1339Y-4.122
X7.1496Y-4.4252
X7.1575Y-4.
X7.1654Y-2.8071
X7.1654Y-2.8386
X7.1654Y-3.9764
X7.2126Y-4.122
X7.2402Y-4.2126
X7.2441Y-2.8661
X7.2756Y-4.4252
X7.2776Y-4.0453
X7.2795Y-3.8976
X7.2815Y-3.811
X7.3287Y-4.0453
X7.378Y-3.874
X7.3898Y-2.9291
X7.3898Y-2.9528
X7.3898Y-2.9764
X7.3937Y-3.748
X7.3937Y-3.7992
X7.3976Y-3.7756
X7.4173Y-4.0709
X7.4291Y-3.9213
X7.4488Y-2.7756
X7.4488Y-2.8346
X7.4626Y-3.9469
X7.4685Y-3.9114
X7.4783Y-3.8563
X7.5236Y-4.0433
X7.5276Y-4.0748
X7.5276Y-4.2205
X7.5276Y-4.248
X7.5827Y-3.9469
X7.5846Y-3.8898
X7.5886Y-3.9173
X7.626Y-4.2165
X7.626Y-4.2598
X7.6339Y-4.063
X7.6969Y-4.0787
X7.7913Y-3.9724
T2
X6.2577Y-3.9173
X6.9077Y-3.9173
T3
X7.7461Y-4.122
T4
X7.7461Y-3.9252
T5
X7.272Y-3.2618
X7.272Y-3.3421
X7.272Y-3.4224
X7.272Y-3.5028
X7.3421Y-3.2217
X7.3421Y-3.302
X7.3421Y-3.3823
X7.3421Y-3.4626
T6
X4.Y-2.8
X4.1Y-2.8
X4.2Y-2.8
X4.3Y-2.8
X4.4Y-2.8
X4.5Y-2.8
X4.6Y-2.8
X4.7Y-2.8
X4.8Y-2.8
X4.9Y-2.8
X5.Y-2.8
X5.1Y-2.8
X5.2Y-2.8
X5.3Y-2.8
X5.4Y-2.8
X5.5Y-2.8
X5.6Y-2.8
X5.7Y-2.8
X5.8Y-2.8
X5.9Y-2.8
X6.Y-2.8
X6.1Y-2.8
X6.2Y-2.8
X6.3Y-2.8
X6.4Y-2.8
X6.5Y-2.8
X6.6Y-2.8
X6.7Y-2.8
X6.8Y-2.8
X6.9Y-2.8
X4.Y-4.4
X4.1Y-4.4
X4.2Y-4.4
X4.3Y-4.4
X4.4Y-4.4
X4.5Y-4.4
X4.6Y-4.4
X4.7Y-4.4
X4.8Y-4.4
X4.9Y-4.4
X5.Y-4.4
X5.1Y-4.4
X5.2Y-4.4
X5.3Y-4.4
X5.4Y-4.4
X5.5Y-4.4
X5.6Y-4.4
X5.7Y-4.4
X5.8Y-4.4
X5.9Y-4.4
X6.Y-4.4
X6.1Y-4.4
X6.2Y-4.4
X6.3Y-4.4
X6.4Y-4.4
X6.5Y-4.4
X6.6Y-4.4
X6.7Y-4.4
X6.8Y-4.4
X6.9Y-4.4
T7
X7.8524Y-3.8858
X7.8524Y-4.1614
T8
X7.5906Y-2.9764
X7.5906Y-3.748
T9
X7.7756Y-4.3701
X7.7756Y-2.8346
X3.7205Y-4.3701
X3.7205Y-2.8346
T0
M30
