G04 #@! TF.GenerationSoftware,KiCad,Pcbnew,(2018-01-10 revision 7e6a654)-master*
G04 #@! TF.CreationDate,2018-02-04T00:48:26+01:00*
G04 #@! TF.ProjectId,jiffy,6A696666792E6B696361645F70636200,rev?*
G04 #@! TF.SameCoordinates,Original*
G04 #@! TF.FileFunction,Paste,Top*
G04 #@! TF.FilePolarity,Positive*
%FSLAX46Y46*%
G04 Gerber Fmt 4.6, Leading zero omitted, Abs format (unit mm)*
G04 Created by KiCad (PCBNEW (2018-01-10 revision 7e6a654)-master) date 2018 February 04, Sunday 00:48:26*
%MOMM*%
%LPD*%
G01*
G04 APERTURE LIST*
%ADD10R,1.060000X0.650000*%
%ADD11R,1.780000X0.620000*%
%ADD12R,0.500000X0.600000*%
%ADD13C,0.450000*%
%ADD14R,0.740000X2.550000*%
%ADD15R,0.600000X0.500000*%
%ADD16R,0.800000X0.750000*%
%ADD17R,0.750000X0.800000*%
%ADD18R,1.500000X1.200000*%
%ADD19R,0.600000X0.400000*%
%ADD20R,0.400000X0.600000*%
%ADD21C,0.400000*%
%ADD22C,0.215000*%
%ADD23C,0.250000*%
%ADD24R,1.250000X1.000000*%
%ADD25R,1.200000X1.000000*%
%ADD26R,1.000000X1.250000*%
%ADD27R,1.000000X1.600000*%
%ADD28R,0.800000X0.800000*%
%ADD29R,0.500000X0.900000*%
%ADD30R,1.350000X0.400000*%
%ADD31R,0.900000X0.500000*%
%ADD32R,0.650000X1.060000*%
%ADD33R,0.250000X0.700000*%
%ADD34R,0.700000X0.250000*%
%ADD35R,1.035000X1.035000*%
%ADD36R,1.600000X3.000000*%
%ADD37C,0.100000*%
%ADD38C,0.900000*%
%ADD39C,1.050000*%
%ADD40R,0.400000X1.100000*%
G04 APERTURE END LIST*
D10*
X193600000Y-100450000D03*
X193600000Y-99500000D03*
X193600000Y-98550000D03*
X191400000Y-98550000D03*
X191400000Y-100450000D03*
X191400000Y-99500000D03*
D11*
X178310000Y-82155000D03*
X178310000Y-83425000D03*
X178310000Y-84695000D03*
X178310000Y-85965000D03*
X178310000Y-87235000D03*
X178310000Y-88505000D03*
X178310000Y-89775000D03*
X178310000Y-91045000D03*
X169290000Y-91045000D03*
X169290000Y-89775000D03*
X169290000Y-88505000D03*
X169290000Y-87235000D03*
X169290000Y-85965000D03*
X169290000Y-84695000D03*
X169290000Y-83425000D03*
X169290000Y-82155000D03*
D12*
X137400000Y-102650000D03*
X137400000Y-103750000D03*
D13*
X132400000Y-83100000D03*
X133200000Y-83100000D03*
X134000000Y-83100000D03*
X134800000Y-83100000D03*
X135600000Y-83100000D03*
X136400000Y-83100000D03*
X137200000Y-83100000D03*
X138000000Y-83100000D03*
X138800000Y-83100000D03*
X139600000Y-83100000D03*
X140400000Y-83100000D03*
X141200000Y-83100000D03*
X142000000Y-83100000D03*
X142800000Y-83100000D03*
X143600000Y-83100000D03*
X144400000Y-83100000D03*
X131600000Y-83900000D03*
X132400000Y-83900000D03*
X133200000Y-83900000D03*
X134000000Y-83900000D03*
X134800000Y-83900000D03*
X135600000Y-83900000D03*
X136400000Y-83900000D03*
X137200000Y-83900000D03*
X138000000Y-83900000D03*
X138800000Y-83900000D03*
X139600000Y-83900000D03*
X140400000Y-83900000D03*
X141200000Y-83900000D03*
X142000000Y-83900000D03*
X142800000Y-83900000D03*
X143600000Y-83900000D03*
X144400000Y-83900000D03*
X131600000Y-84700000D03*
X132400000Y-84700000D03*
X133200000Y-84700000D03*
X134000000Y-84700000D03*
X134800000Y-84700000D03*
X135600000Y-84700000D03*
X136400000Y-84700000D03*
X137200000Y-84700000D03*
X138000000Y-84700000D03*
X138800000Y-84700000D03*
X139600000Y-84700000D03*
X140400000Y-84700000D03*
X141200000Y-84700000D03*
X142000000Y-84700000D03*
X142800000Y-84700000D03*
X143600000Y-84700000D03*
X144400000Y-84700000D03*
X131600000Y-85500000D03*
X132400000Y-85500000D03*
X133200000Y-85500000D03*
X134000000Y-85500000D03*
X134800000Y-85500000D03*
X135600000Y-85500000D03*
X136400000Y-85500000D03*
X137200000Y-85500000D03*
X138000000Y-85500000D03*
X138800000Y-85500000D03*
X139600000Y-85500000D03*
X140400000Y-85500000D03*
X141200000Y-85500000D03*
X142000000Y-85500000D03*
X142800000Y-85500000D03*
X143600000Y-85500000D03*
X144400000Y-85500000D03*
X131600000Y-86300000D03*
X132400000Y-86300000D03*
X133200000Y-86300000D03*
X134000000Y-86300000D03*
X134800000Y-86300000D03*
X135600000Y-86300000D03*
X136400000Y-86300000D03*
X137200000Y-86300000D03*
X138000000Y-86300000D03*
X138800000Y-86300000D03*
X139600000Y-86300000D03*
X140400000Y-86300000D03*
X141200000Y-86300000D03*
X142000000Y-86300000D03*
X142800000Y-86300000D03*
X143600000Y-86300000D03*
X144400000Y-86300000D03*
X131600000Y-87100000D03*
X132400000Y-87100000D03*
X133200000Y-87100000D03*
X134000000Y-87100000D03*
X134800000Y-87100000D03*
X135600000Y-87100000D03*
X136400000Y-87100000D03*
X137200000Y-87100000D03*
X138000000Y-87100000D03*
X138800000Y-87100000D03*
X139600000Y-87100000D03*
X140400000Y-87100000D03*
X141200000Y-87100000D03*
X142000000Y-87100000D03*
X142800000Y-87100000D03*
X143600000Y-87100000D03*
X144400000Y-87100000D03*
X131600000Y-87900000D03*
X132400000Y-87900000D03*
X133200000Y-87900000D03*
X134000000Y-87900000D03*
X134800000Y-87900000D03*
X135600000Y-87900000D03*
X136400000Y-87900000D03*
X137200000Y-87900000D03*
X138000000Y-87900000D03*
X138800000Y-87900000D03*
X139600000Y-87900000D03*
X140400000Y-87900000D03*
X141200000Y-87900000D03*
X142000000Y-87900000D03*
X142800000Y-87900000D03*
X143600000Y-87900000D03*
X144400000Y-87900000D03*
X131600000Y-88700000D03*
X132400000Y-88700000D03*
X133200000Y-88700000D03*
X134000000Y-88700000D03*
X134800000Y-88700000D03*
X135600000Y-88700000D03*
X136400000Y-88700000D03*
X137200000Y-88700000D03*
X138000000Y-88700000D03*
X138800000Y-88700000D03*
X139600000Y-88700000D03*
X140400000Y-88700000D03*
X141200000Y-88700000D03*
X142000000Y-88700000D03*
X142800000Y-88700000D03*
X143600000Y-88700000D03*
X144400000Y-88700000D03*
X131600000Y-89500000D03*
X132400000Y-89500000D03*
X133200000Y-89500000D03*
X134000000Y-89500000D03*
X134800000Y-89500000D03*
X135600000Y-89500000D03*
X136400000Y-89500000D03*
X137200000Y-89500000D03*
X138000000Y-89500000D03*
X138800000Y-89500000D03*
X139600000Y-89500000D03*
X140400000Y-89500000D03*
X141200000Y-89500000D03*
X142000000Y-89500000D03*
X142800000Y-89500000D03*
X143600000Y-89500000D03*
X144400000Y-89500000D03*
X131600000Y-90300000D03*
X132400000Y-90300000D03*
X133200000Y-90300000D03*
X134000000Y-90300000D03*
X134800000Y-90300000D03*
X135600000Y-90300000D03*
X136400000Y-90300000D03*
X137200000Y-90300000D03*
X138000000Y-90300000D03*
X138800000Y-90300000D03*
X139600000Y-90300000D03*
X140400000Y-90300000D03*
X141200000Y-90300000D03*
X142000000Y-90300000D03*
X142800000Y-90300000D03*
X143600000Y-90300000D03*
X144400000Y-90300000D03*
X131600000Y-91100000D03*
X132400000Y-91100000D03*
X133200000Y-91100000D03*
X134000000Y-91100000D03*
X134800000Y-91100000D03*
X135600000Y-91100000D03*
X136400000Y-91100000D03*
X137200000Y-91100000D03*
X138000000Y-91100000D03*
X138800000Y-91100000D03*
X139600000Y-91100000D03*
X140400000Y-91100000D03*
X141200000Y-91100000D03*
X142000000Y-91100000D03*
X142800000Y-91100000D03*
X143600000Y-91100000D03*
X144400000Y-91100000D03*
X131600000Y-91900000D03*
X132400000Y-91900000D03*
X133200000Y-91900000D03*
X134000000Y-91900000D03*
X134800000Y-91900000D03*
X135600000Y-91900000D03*
X136400000Y-91900000D03*
X137200000Y-91900000D03*
X138000000Y-91900000D03*
X138800000Y-91900000D03*
X139600000Y-91900000D03*
X140400000Y-91900000D03*
X141200000Y-91900000D03*
X142000000Y-91900000D03*
X142800000Y-91900000D03*
X143600000Y-91900000D03*
X144400000Y-91900000D03*
X131600000Y-92700000D03*
X132400000Y-92700000D03*
X133200000Y-92700000D03*
X134000000Y-92700000D03*
X134800000Y-92700000D03*
X135600000Y-92700000D03*
X136400000Y-92700000D03*
X137200000Y-92700000D03*
X138000000Y-92700000D03*
X138800000Y-92700000D03*
X139600000Y-92700000D03*
X140400000Y-92700000D03*
X141200000Y-92700000D03*
X142000000Y-92700000D03*
X142800000Y-92700000D03*
X143600000Y-92700000D03*
X144400000Y-92700000D03*
X131600000Y-93500000D03*
X132400000Y-93500000D03*
X133200000Y-93500000D03*
X134000000Y-93500000D03*
X134800000Y-93500000D03*
X135600000Y-93500000D03*
X136400000Y-93500000D03*
X137200000Y-93500000D03*
X138000000Y-93500000D03*
X138800000Y-93500000D03*
X139600000Y-93500000D03*
X140400000Y-93500000D03*
X141200000Y-93500000D03*
X142000000Y-93500000D03*
X142800000Y-93500000D03*
X143600000Y-93500000D03*
X144400000Y-93500000D03*
X131600000Y-94300000D03*
X132400000Y-94300000D03*
X133200000Y-94300000D03*
X134000000Y-94300000D03*
X134800000Y-94300000D03*
X135600000Y-94300000D03*
X136400000Y-94300000D03*
X137200000Y-94300000D03*
X138000000Y-94300000D03*
X138800000Y-94300000D03*
X139600000Y-94300000D03*
X140400000Y-94300000D03*
X141200000Y-94300000D03*
X142000000Y-94300000D03*
X142800000Y-94300000D03*
X143600000Y-94300000D03*
X144400000Y-94300000D03*
X131600000Y-95100000D03*
X132400000Y-95100000D03*
X133200000Y-95100000D03*
X134000000Y-95100000D03*
X134800000Y-95100000D03*
X135600000Y-95100000D03*
X136400000Y-95100000D03*
X137200000Y-95100000D03*
X138000000Y-95100000D03*
X138800000Y-95100000D03*
X139600000Y-95100000D03*
X140400000Y-95100000D03*
X141200000Y-95100000D03*
X142000000Y-95100000D03*
X142800000Y-95100000D03*
X143600000Y-95100000D03*
X144400000Y-95100000D03*
X131600000Y-95900000D03*
X132400000Y-95900000D03*
X133200000Y-95900000D03*
X134000000Y-95900000D03*
X134800000Y-95900000D03*
X135600000Y-95900000D03*
X136400000Y-95900000D03*
X137200000Y-95900000D03*
X138000000Y-95900000D03*
X138800000Y-95900000D03*
X139600000Y-95900000D03*
X140400000Y-95900000D03*
X141200000Y-95900000D03*
X142000000Y-95900000D03*
X142800000Y-95900000D03*
X143600000Y-95900000D03*
X144400000Y-95900000D03*
X131600000Y-83100000D03*
D14*
X172915000Y-97595000D03*
X172915000Y-101405000D03*
X171645000Y-97595000D03*
X171645000Y-101405000D03*
X170375000Y-97595000D03*
X170375000Y-101405000D03*
X169105000Y-97595000D03*
X169105000Y-101405000D03*
X167835000Y-97595000D03*
X167835000Y-101405000D03*
X166565000Y-97595000D03*
X166565000Y-101405000D03*
X165295000Y-97595000D03*
X165295000Y-101405000D03*
X164025000Y-97595000D03*
X164025000Y-101405000D03*
X162755000Y-97595000D03*
X162755000Y-101405000D03*
X161485000Y-97595000D03*
X161485000Y-101405000D03*
D12*
X140950000Y-97750000D03*
X140950000Y-98850000D03*
D15*
X146550000Y-95150000D03*
X147650000Y-95150000D03*
D12*
X125800000Y-84050000D03*
X125800000Y-85150000D03*
D15*
X136350000Y-100100000D03*
X137450000Y-100100000D03*
X139450000Y-77800000D03*
X140550000Y-77800000D03*
D16*
X147050000Y-96450000D03*
X148550000Y-96450000D03*
D15*
X147650000Y-93500000D03*
X146550000Y-93500000D03*
X118050000Y-90550000D03*
X116950000Y-90550000D03*
X118050000Y-91650000D03*
X116950000Y-91650000D03*
D12*
X129100000Y-84050000D03*
X129100000Y-85150000D03*
D15*
X137050000Y-99000000D03*
X138150000Y-99000000D03*
X140550000Y-78900000D03*
X139450000Y-78900000D03*
X147650000Y-92300000D03*
X146550000Y-92300000D03*
D12*
X128000000Y-85150000D03*
X128000000Y-84050000D03*
D15*
X139450000Y-80000000D03*
X140550000Y-80000000D03*
D12*
X144150000Y-98850000D03*
X144150000Y-99950000D03*
X140650000Y-100300000D03*
X140650000Y-101400000D03*
X126900000Y-84050000D03*
X126900000Y-85150000D03*
D15*
X138250000Y-97700000D03*
X139350000Y-97700000D03*
D17*
X138000000Y-78050000D03*
X138000000Y-79550000D03*
X141950000Y-101950000D03*
X141950000Y-100450000D03*
D15*
X135750000Y-102400000D03*
X134650000Y-102400000D03*
D16*
X124150000Y-82200000D03*
X125650000Y-82200000D03*
D15*
X118300000Y-80300000D03*
X119400000Y-80300000D03*
X125450000Y-104000000D03*
X124350000Y-104000000D03*
X136350000Y-101300000D03*
X137450000Y-101300000D03*
X125450000Y-80300000D03*
X126550000Y-80300000D03*
X126750000Y-104000000D03*
X127850000Y-104000000D03*
D16*
X134750000Y-103700000D03*
X136250000Y-103700000D03*
D15*
X121800000Y-80300000D03*
X120700000Y-80300000D03*
X121950000Y-104000000D03*
X123050000Y-104000000D03*
X123050000Y-80300000D03*
X124150000Y-80300000D03*
X120650000Y-104000000D03*
X119550000Y-104000000D03*
X117000000Y-80300000D03*
X115900000Y-80300000D03*
X120650000Y-105100000D03*
X119550000Y-105100000D03*
X118150000Y-98500000D03*
X117050000Y-98500000D03*
X118050000Y-85400000D03*
X116950000Y-85400000D03*
X129150000Y-104000000D03*
X130250000Y-104000000D03*
X122900000Y-77450000D03*
X121800000Y-77450000D03*
X118150000Y-97400000D03*
X117050000Y-97400000D03*
X118150000Y-96300000D03*
X117050000Y-96300000D03*
X118900000Y-102250000D03*
X117800000Y-102250000D03*
D16*
X131550000Y-103700000D03*
X133050000Y-103700000D03*
D15*
X148200000Y-76500000D03*
X147100000Y-76500000D03*
X118050000Y-86500000D03*
X116950000Y-86500000D03*
X117050000Y-99600000D03*
X118150000Y-99600000D03*
X113300000Y-105350000D03*
X114400000Y-105350000D03*
X147100000Y-75350000D03*
X148200000Y-75350000D03*
X129200000Y-102550000D03*
X128100000Y-102550000D03*
X116450000Y-83850000D03*
X117550000Y-83850000D03*
X116450000Y-82750000D03*
X117550000Y-82750000D03*
D12*
X106550000Y-102600000D03*
X106550000Y-101500000D03*
D15*
X147100000Y-77650000D03*
X148200000Y-77650000D03*
X115650000Y-105300000D03*
X116750000Y-105300000D03*
X130450000Y-102550000D03*
X131550000Y-102550000D03*
X125400000Y-102550000D03*
X126500000Y-102550000D03*
X148200000Y-78800000D03*
X147100000Y-78800000D03*
X117050000Y-100700000D03*
X118150000Y-100700000D03*
D12*
X118200000Y-103500000D03*
X118200000Y-104600000D03*
X119400000Y-86350000D03*
X119400000Y-85250000D03*
D16*
X120150000Y-102400000D03*
X121650000Y-102400000D03*
X110700000Y-101450000D03*
X112200000Y-101450000D03*
D12*
X160900000Y-92150000D03*
X160900000Y-91050000D03*
D16*
X128750000Y-82200000D03*
X127250000Y-82200000D03*
D12*
X106550000Y-103800000D03*
X106550000Y-104900000D03*
X171500000Y-94850000D03*
X171500000Y-93750000D03*
X172700000Y-93750000D03*
X172700000Y-94850000D03*
D17*
X119000000Y-81950000D03*
X119000000Y-83450000D03*
D16*
X111550000Y-105700000D03*
X110050000Y-105700000D03*
D12*
X140650000Y-102600000D03*
X140650000Y-103700000D03*
D15*
X139650000Y-103750000D03*
X138550000Y-103750000D03*
X149650000Y-99000000D03*
X150750000Y-99000000D03*
X150750000Y-103200000D03*
X149650000Y-103200000D03*
X98450000Y-98600000D03*
X99550000Y-98600000D03*
X99550000Y-84000000D03*
X98450000Y-84000000D03*
X99550000Y-85500000D03*
X98450000Y-85500000D03*
X98450000Y-99700000D03*
X99550000Y-99700000D03*
X98450000Y-93000000D03*
X99550000Y-93000000D03*
X98450000Y-100800000D03*
X99550000Y-100800000D03*
X99550000Y-87000000D03*
X98450000Y-87000000D03*
X98450000Y-88500000D03*
X99550000Y-88500000D03*
X99550000Y-91500000D03*
X98450000Y-91500000D03*
X99550000Y-96000000D03*
X98450000Y-96000000D03*
X98450000Y-97500000D03*
X99550000Y-97500000D03*
X99550000Y-94500000D03*
X98450000Y-94500000D03*
X99550000Y-90000000D03*
X98450000Y-90000000D03*
D18*
X113600000Y-103100000D03*
X116300000Y-103100000D03*
X123900000Y-85000000D03*
X121200000Y-85000000D03*
D19*
X139300000Y-99750000D03*
X139300000Y-98850000D03*
D20*
X147800000Y-99000000D03*
X148700000Y-99000000D03*
X117050000Y-87650000D03*
X117950000Y-87650000D03*
X117050000Y-95200000D03*
X117950000Y-95200000D03*
X117950000Y-92800000D03*
X117050000Y-92800000D03*
X154550000Y-84500000D03*
X153650000Y-84500000D03*
X154550000Y-85700000D03*
X153650000Y-85700000D03*
X134450000Y-99700000D03*
X133550000Y-99700000D03*
X117950000Y-94000000D03*
X117050000Y-94000000D03*
D19*
X108250000Y-102400000D03*
X108250000Y-101500000D03*
X108250000Y-103450000D03*
X108250000Y-104350000D03*
X101150000Y-103300000D03*
X101150000Y-102400000D03*
X164100000Y-93750000D03*
X164100000Y-94650000D03*
X165300000Y-94650000D03*
X165300000Y-93750000D03*
X167800000Y-93750000D03*
X167800000Y-94650000D03*
X170300000Y-94750000D03*
X170300000Y-93850000D03*
X173900000Y-94750000D03*
X173900000Y-93850000D03*
D20*
X97450000Y-78450000D03*
X96550000Y-78450000D03*
D19*
X109500000Y-81150000D03*
X109500000Y-80250000D03*
D20*
X148700000Y-103150000D03*
X147800000Y-103150000D03*
D19*
X110700000Y-81150000D03*
X110700000Y-80250000D03*
X103400000Y-80250000D03*
X103400000Y-81150000D03*
X108300000Y-81150000D03*
X108300000Y-80250000D03*
X105800000Y-81150000D03*
X105800000Y-80250000D03*
X104600000Y-80250000D03*
X104600000Y-81150000D03*
X107100000Y-81150000D03*
X107100000Y-80250000D03*
X113100000Y-80250000D03*
X113100000Y-81150000D03*
X111900000Y-81150000D03*
X111900000Y-80250000D03*
X114400000Y-80250000D03*
X114400000Y-81150000D03*
D21*
X127200000Y-100000000D03*
X126400000Y-100000000D03*
X125600000Y-100000000D03*
X122400000Y-100000000D03*
X121600000Y-100000000D03*
X120800000Y-100000000D03*
X127200000Y-99200000D03*
X126400000Y-99200000D03*
X125600000Y-99200000D03*
X122400000Y-99200000D03*
X121600000Y-99200000D03*
X120800000Y-99200000D03*
X127200000Y-98400000D03*
X126400000Y-98400000D03*
X125600000Y-98400000D03*
X122400000Y-98400000D03*
X121600000Y-98400000D03*
X120800000Y-98400000D03*
X127200000Y-97600000D03*
X126400000Y-97600000D03*
X125600000Y-97600000D03*
X122400000Y-97600000D03*
X121600000Y-97600000D03*
X120800000Y-97600000D03*
X127200000Y-96800000D03*
X126400000Y-96800000D03*
X125600000Y-96800000D03*
X122400000Y-96800000D03*
X121600000Y-96800000D03*
X120800000Y-96800000D03*
X127200000Y-96000000D03*
X126400000Y-96000000D03*
X125600000Y-96000000D03*
X122400000Y-96000000D03*
X121600000Y-96000000D03*
X120800000Y-96000000D03*
X127200000Y-95200000D03*
X126400000Y-95200000D03*
X125600000Y-95200000D03*
X122400000Y-95200000D03*
X121600000Y-95200000D03*
X120800000Y-95200000D03*
X127200000Y-94400000D03*
X126400000Y-94400000D03*
X125600000Y-94400000D03*
X122400000Y-94400000D03*
X121600000Y-94400000D03*
X120800000Y-94400000D03*
X127200000Y-93600000D03*
X126400000Y-93600000D03*
X125600000Y-93600000D03*
X122400000Y-93600000D03*
X121600000Y-93600000D03*
X120800000Y-93600000D03*
X127200000Y-92800000D03*
X126400000Y-92800000D03*
X125600000Y-92800000D03*
X122400000Y-92800000D03*
X121600000Y-92800000D03*
X120800000Y-92800000D03*
X127200000Y-92000000D03*
X126400000Y-92000000D03*
X125600000Y-92000000D03*
X122400000Y-92000000D03*
X121600000Y-92000000D03*
X120800000Y-92000000D03*
X127200000Y-91200000D03*
X126400000Y-91200000D03*
X125600000Y-91200000D03*
X122400000Y-91200000D03*
X121600000Y-91200000D03*
X120800000Y-91200000D03*
X127200000Y-90400000D03*
X126400000Y-90400000D03*
X125600000Y-90400000D03*
X122400000Y-90400000D03*
X121600000Y-90400000D03*
X120800000Y-90400000D03*
X127200000Y-89600000D03*
X126400000Y-89600000D03*
X125600000Y-89600000D03*
X122400000Y-89600000D03*
X121600000Y-89600000D03*
X120800000Y-89600000D03*
X127200000Y-88800000D03*
X126400000Y-88800000D03*
X125600000Y-88800000D03*
X122400000Y-88800000D03*
X121600000Y-88800000D03*
X120800000Y-88800000D03*
X127200000Y-88000000D03*
X126400000Y-88000000D03*
X125600000Y-88000000D03*
X122400000Y-88000000D03*
X121600000Y-88000000D03*
X120800000Y-88000000D03*
D10*
X102800000Y-103750000D03*
X102800000Y-101850000D03*
X105000000Y-101850000D03*
X105000000Y-102800000D03*
X105000000Y-103750000D03*
D22*
X109900000Y-104100000D03*
X109900000Y-103700000D03*
X109900000Y-103300000D03*
X109900000Y-102900000D03*
X110300000Y-104100000D03*
X110300000Y-103700000D03*
X110300000Y-103300000D03*
X110300000Y-102900000D03*
X110700000Y-104100000D03*
X110700000Y-103700000D03*
X110700000Y-103300000D03*
X110700000Y-102900000D03*
X111100000Y-104100000D03*
X111100000Y-103700000D03*
X111100000Y-103300000D03*
X111100000Y-102900000D03*
X111500000Y-104100000D03*
X111500000Y-103700000D03*
X111500000Y-103300000D03*
X111500000Y-102900000D03*
D23*
X120750000Y-82600000D03*
X120750000Y-82100000D03*
X120750000Y-81600000D03*
X121250000Y-82600000D03*
X121250000Y-82100000D03*
X121250000Y-81600000D03*
X121750000Y-82600000D03*
X121750000Y-82100000D03*
X121750000Y-81600000D03*
X122250000Y-82600000D03*
X122250000Y-82100000D03*
X122250000Y-81600000D03*
D13*
X113000000Y-99500000D03*
X112000000Y-99500000D03*
X105000000Y-99500000D03*
X104000000Y-99500000D03*
X113000000Y-98500000D03*
X104000000Y-98500000D03*
X112000000Y-96500000D03*
X111000000Y-96500000D03*
X110000000Y-96500000D03*
X109000000Y-96500000D03*
X108000000Y-96500000D03*
X107000000Y-96500000D03*
X106000000Y-96500000D03*
X105000000Y-96500000D03*
X112000000Y-95500000D03*
X111000000Y-95500000D03*
X110000000Y-95500000D03*
X109000000Y-95500000D03*
X108000000Y-95500000D03*
X107000000Y-95500000D03*
X106000000Y-95500000D03*
X105000000Y-95500000D03*
X112000000Y-94500000D03*
X111000000Y-94500000D03*
X110000000Y-94500000D03*
X109000000Y-94500000D03*
X108000000Y-94500000D03*
X107000000Y-94500000D03*
X106000000Y-94500000D03*
X105000000Y-94500000D03*
X112000000Y-93500000D03*
X111000000Y-93500000D03*
X110000000Y-93500000D03*
X109000000Y-93500000D03*
X108000000Y-93500000D03*
X107000000Y-93500000D03*
X106000000Y-93500000D03*
X105000000Y-93500000D03*
X112000000Y-92500000D03*
X111000000Y-92500000D03*
X110000000Y-92500000D03*
X109000000Y-92500000D03*
X108000000Y-92500000D03*
X107000000Y-92500000D03*
X106000000Y-92500000D03*
X105000000Y-92500000D03*
X112000000Y-91500000D03*
X111000000Y-91500000D03*
X110000000Y-91500000D03*
X109000000Y-91500000D03*
X108000000Y-91500000D03*
X107000000Y-91500000D03*
X106000000Y-91500000D03*
X105000000Y-91500000D03*
X112000000Y-90500000D03*
X111000000Y-90500000D03*
X110000000Y-90500000D03*
X109000000Y-90500000D03*
X108000000Y-90500000D03*
X107000000Y-90500000D03*
X106000000Y-90500000D03*
X105000000Y-90500000D03*
X112000000Y-89500000D03*
X111000000Y-89500000D03*
X110000000Y-89500000D03*
X109000000Y-89500000D03*
X108000000Y-89500000D03*
X107000000Y-89500000D03*
X106000000Y-89500000D03*
X105000000Y-89500000D03*
X112000000Y-88500000D03*
X111000000Y-88500000D03*
X110000000Y-88500000D03*
X109000000Y-88500000D03*
X108000000Y-88500000D03*
X107000000Y-88500000D03*
X106000000Y-88500000D03*
X105000000Y-88500000D03*
X112000000Y-87500000D03*
X111000000Y-87500000D03*
X110000000Y-87500000D03*
X109000000Y-87500000D03*
X108000000Y-87500000D03*
X107000000Y-87500000D03*
X106000000Y-87500000D03*
X105000000Y-87500000D03*
X112000000Y-86500000D03*
X111000000Y-86500000D03*
X110000000Y-86500000D03*
X109000000Y-86500000D03*
X108000000Y-86500000D03*
X107000000Y-86500000D03*
X106000000Y-86500000D03*
X105000000Y-86500000D03*
X113000000Y-84500000D03*
X104000000Y-84500000D03*
X113000000Y-83500000D03*
X112000000Y-83500000D03*
X105000000Y-83500000D03*
X104000000Y-83500000D03*
D24*
X139100000Y-102450000D03*
X139100000Y-100950000D03*
D25*
X150450000Y-100450000D03*
X148750000Y-100450000D03*
X148750000Y-101750000D03*
X150450000Y-101750000D03*
D16*
X183350000Y-111500000D03*
X184850000Y-111500000D03*
X181650000Y-111500000D03*
X180150000Y-111500000D03*
D24*
X187500000Y-99500000D03*
X187500000Y-101500000D03*
D26*
X183200000Y-103700000D03*
X181200000Y-103700000D03*
D12*
X155300000Y-79650000D03*
X155300000Y-78550000D03*
X156800000Y-78550000D03*
X156800000Y-79650000D03*
X158300000Y-79650000D03*
X158300000Y-78550000D03*
X159800000Y-78550000D03*
X159800000Y-79650000D03*
X161300000Y-78550000D03*
X161300000Y-79650000D03*
X162800000Y-78550000D03*
X162800000Y-79650000D03*
D26*
X166800000Y-79100000D03*
X164800000Y-79100000D03*
D15*
X158650000Y-81300000D03*
X159750000Y-81300000D03*
X159750000Y-82400000D03*
X158650000Y-82400000D03*
D27*
X170800000Y-78600000D03*
X173800000Y-78600000D03*
X186700000Y-75000000D03*
X189700000Y-75000000D03*
X189800000Y-95900000D03*
X186800000Y-95900000D03*
D28*
X188300000Y-72000000D03*
X186700000Y-72000000D03*
X186700000Y-70500000D03*
X188300000Y-70500000D03*
D29*
X184750000Y-107000000D03*
X183250000Y-107000000D03*
X179750000Y-103600000D03*
X178250000Y-103600000D03*
D30*
X196750000Y-100900000D03*
X196750000Y-101550000D03*
X196750000Y-102200000D03*
X196750000Y-102850000D03*
X196750000Y-103500000D03*
D19*
X178600000Y-111850000D03*
X178600000Y-110950000D03*
X156700000Y-92050000D03*
X156700000Y-91150000D03*
X157900000Y-91150000D03*
X157900000Y-92050000D03*
X159100000Y-92050000D03*
X159100000Y-91150000D03*
D20*
X184950000Y-72000000D03*
X184050000Y-72000000D03*
D19*
X162700000Y-81750000D03*
X162700000Y-82650000D03*
D31*
X164200000Y-83350000D03*
X164200000Y-81850000D03*
D20*
X153650000Y-88600000D03*
X154550000Y-88600000D03*
X184050000Y-70500000D03*
X184950000Y-70500000D03*
D31*
X166400000Y-81850000D03*
X166400000Y-83350000D03*
D20*
X182050000Y-70500000D03*
X182950000Y-70500000D03*
D31*
X166400000Y-88850000D03*
X166400000Y-90350000D03*
X164200000Y-90350000D03*
X164200000Y-88850000D03*
D29*
X176150000Y-79000000D03*
X177650000Y-79000000D03*
X176150000Y-94200000D03*
X177650000Y-94200000D03*
D10*
X179000000Y-109250000D03*
X179000000Y-107350000D03*
X181200000Y-107350000D03*
X181200000Y-108300000D03*
X181200000Y-109250000D03*
D32*
X165300000Y-85000000D03*
X164350000Y-85000000D03*
X166250000Y-85000000D03*
X166250000Y-87200000D03*
X165300000Y-87200000D03*
X164350000Y-87200000D03*
D33*
X161150000Y-83950000D03*
X160650000Y-83950000D03*
X160150000Y-83950000D03*
X159650000Y-83950000D03*
X159150000Y-83950000D03*
X158650000Y-83950000D03*
X158150000Y-83950000D03*
X157650000Y-83950000D03*
D34*
X157000000Y-84600000D03*
X157000000Y-85100000D03*
X157000000Y-85600000D03*
X157000000Y-86100000D03*
X157000000Y-86600000D03*
X157000000Y-87100000D03*
X157000000Y-87600000D03*
X157000000Y-88100000D03*
D33*
X157650000Y-88750000D03*
X158150000Y-88750000D03*
X158650000Y-88750000D03*
X159150000Y-88750000D03*
X159650000Y-88750000D03*
X160150000Y-88750000D03*
X160650000Y-88750000D03*
X161150000Y-88750000D03*
D34*
X161800000Y-88100000D03*
X161800000Y-87600000D03*
X161800000Y-87100000D03*
X161800000Y-86600000D03*
X161800000Y-86100000D03*
X161800000Y-85600000D03*
X161800000Y-85100000D03*
X161800000Y-84600000D03*
D35*
X158537500Y-87212500D03*
X160262500Y-87212500D03*
X158537500Y-85487500D03*
X160262500Y-85487500D03*
D36*
X192400000Y-103550000D03*
X192400000Y-107950000D03*
D20*
X154550000Y-87000000D03*
X153650000Y-87000000D03*
X153650000Y-83200000D03*
X154550000Y-83200000D03*
D19*
X118100000Y-88700000D03*
X118100000Y-89600000D03*
X116800000Y-88650000D03*
X116800000Y-89550000D03*
X114300000Y-75050000D03*
X114300000Y-74150000D03*
X111900000Y-74150000D03*
X111900000Y-75050000D03*
D37*
G36*
X92997054Y-82101083D02*
X93018895Y-82104323D01*
X93040314Y-82109688D01*
X93061104Y-82117127D01*
X93081064Y-82126568D01*
X93100003Y-82137919D01*
X93117738Y-82151073D01*
X93134099Y-82165901D01*
X93148927Y-82182262D01*
X93162081Y-82199997D01*
X93173432Y-82218936D01*
X93182873Y-82238896D01*
X93190312Y-82259686D01*
X93195677Y-82281105D01*
X93198917Y-82302946D01*
X93200000Y-82325000D01*
X93200000Y-82775000D01*
X93198917Y-82797054D01*
X93195677Y-82818895D01*
X93190312Y-82840314D01*
X93182873Y-82861104D01*
X93173432Y-82881064D01*
X93162081Y-82900003D01*
X93148927Y-82917738D01*
X93134099Y-82934099D01*
X93117738Y-82948927D01*
X93100003Y-82962081D01*
X93081064Y-82973432D01*
X93061104Y-82982873D01*
X93040314Y-82990312D01*
X93018895Y-82995677D01*
X92997054Y-82998917D01*
X92975000Y-83000000D01*
X92425000Y-83000000D01*
X92402946Y-82998917D01*
X92381105Y-82995677D01*
X92359686Y-82990312D01*
X92338896Y-82982873D01*
X92318936Y-82973432D01*
X92299997Y-82962081D01*
X92282262Y-82948927D01*
X92265901Y-82934099D01*
X92251073Y-82917738D01*
X92237919Y-82900003D01*
X92226568Y-82881064D01*
X92217127Y-82861104D01*
X92209688Y-82840314D01*
X92204323Y-82818895D01*
X92201083Y-82797054D01*
X92200000Y-82775000D01*
X92200000Y-82325000D01*
X92201083Y-82302946D01*
X92204323Y-82281105D01*
X92209688Y-82259686D01*
X92217127Y-82238896D01*
X92226568Y-82218936D01*
X92237919Y-82199997D01*
X92251073Y-82182262D01*
X92265901Y-82165901D01*
X92282262Y-82151073D01*
X92299997Y-82137919D01*
X92318936Y-82126568D01*
X92338896Y-82117127D01*
X92359686Y-82109688D01*
X92381105Y-82104323D01*
X92402946Y-82101083D01*
X92425000Y-82100000D01*
X92975000Y-82100000D01*
X92997054Y-82101083D01*
X92997054Y-82101083D01*
G37*
D38*
X92700000Y-82550000D03*
D37*
G36*
X92997054Y-78001083D02*
X93018895Y-78004323D01*
X93040314Y-78009688D01*
X93061104Y-78017127D01*
X93081064Y-78026568D01*
X93100003Y-78037919D01*
X93117738Y-78051073D01*
X93134099Y-78065901D01*
X93148927Y-78082262D01*
X93162081Y-78099997D01*
X93173432Y-78118936D01*
X93182873Y-78138896D01*
X93190312Y-78159686D01*
X93195677Y-78181105D01*
X93198917Y-78202946D01*
X93200000Y-78225000D01*
X93200000Y-78675000D01*
X93198917Y-78697054D01*
X93195677Y-78718895D01*
X93190312Y-78740314D01*
X93182873Y-78761104D01*
X93173432Y-78781064D01*
X93162081Y-78800003D01*
X93148927Y-78817738D01*
X93134099Y-78834099D01*
X93117738Y-78848927D01*
X93100003Y-78862081D01*
X93081064Y-78873432D01*
X93061104Y-78882873D01*
X93040314Y-78890312D01*
X93018895Y-78895677D01*
X92997054Y-78898917D01*
X92975000Y-78900000D01*
X92425000Y-78900000D01*
X92402946Y-78898917D01*
X92381105Y-78895677D01*
X92359686Y-78890312D01*
X92338896Y-78882873D01*
X92318936Y-78873432D01*
X92299997Y-78862081D01*
X92282262Y-78848927D01*
X92265901Y-78834099D01*
X92251073Y-78817738D01*
X92237919Y-78800003D01*
X92226568Y-78781064D01*
X92217127Y-78761104D01*
X92209688Y-78740314D01*
X92204323Y-78718895D01*
X92201083Y-78697054D01*
X92200000Y-78675000D01*
X92200000Y-78225000D01*
X92201083Y-78202946D01*
X92204323Y-78181105D01*
X92209688Y-78159686D01*
X92217127Y-78138896D01*
X92226568Y-78118936D01*
X92237919Y-78099997D01*
X92251073Y-78082262D01*
X92265901Y-78065901D01*
X92282262Y-78051073D01*
X92299997Y-78037919D01*
X92318936Y-78026568D01*
X92338896Y-78017127D01*
X92359686Y-78009688D01*
X92381105Y-78004323D01*
X92402946Y-78001083D01*
X92425000Y-78000000D01*
X92975000Y-78000000D01*
X92997054Y-78001083D01*
X92997054Y-78001083D01*
G37*
D38*
X92700000Y-78450000D03*
D37*
G36*
X94597054Y-82101083D02*
X94618895Y-82104323D01*
X94640314Y-82109688D01*
X94661104Y-82117127D01*
X94681064Y-82126568D01*
X94700003Y-82137919D01*
X94717738Y-82151073D01*
X94734099Y-82165901D01*
X94748927Y-82182262D01*
X94762081Y-82199997D01*
X94773432Y-82218936D01*
X94782873Y-82238896D01*
X94790312Y-82259686D01*
X94795677Y-82281105D01*
X94798917Y-82302946D01*
X94800000Y-82325000D01*
X94800000Y-82775000D01*
X94798917Y-82797054D01*
X94795677Y-82818895D01*
X94790312Y-82840314D01*
X94782873Y-82861104D01*
X94773432Y-82881064D01*
X94762081Y-82900003D01*
X94748927Y-82917738D01*
X94734099Y-82934099D01*
X94717738Y-82948927D01*
X94700003Y-82962081D01*
X94681064Y-82973432D01*
X94661104Y-82982873D01*
X94640314Y-82990312D01*
X94618895Y-82995677D01*
X94597054Y-82998917D01*
X94575000Y-83000000D01*
X94025000Y-83000000D01*
X94002946Y-82998917D01*
X93981105Y-82995677D01*
X93959686Y-82990312D01*
X93938896Y-82982873D01*
X93918936Y-82973432D01*
X93899997Y-82962081D01*
X93882262Y-82948927D01*
X93865901Y-82934099D01*
X93851073Y-82917738D01*
X93837919Y-82900003D01*
X93826568Y-82881064D01*
X93817127Y-82861104D01*
X93809688Y-82840314D01*
X93804323Y-82818895D01*
X93801083Y-82797054D01*
X93800000Y-82775000D01*
X93800000Y-82325000D01*
X93801083Y-82302946D01*
X93804323Y-82281105D01*
X93809688Y-82259686D01*
X93817127Y-82238896D01*
X93826568Y-82218936D01*
X93837919Y-82199997D01*
X93851073Y-82182262D01*
X93865901Y-82165901D01*
X93882262Y-82151073D01*
X93899997Y-82137919D01*
X93918936Y-82126568D01*
X93938896Y-82117127D01*
X93959686Y-82109688D01*
X93981105Y-82104323D01*
X94002946Y-82101083D01*
X94025000Y-82100000D01*
X94575000Y-82100000D01*
X94597054Y-82101083D01*
X94597054Y-82101083D01*
G37*
D38*
X94300000Y-82550000D03*
D37*
G36*
X94597054Y-78001083D02*
X94618895Y-78004323D01*
X94640314Y-78009688D01*
X94661104Y-78017127D01*
X94681064Y-78026568D01*
X94700003Y-78037919D01*
X94717738Y-78051073D01*
X94734099Y-78065901D01*
X94748927Y-78082262D01*
X94762081Y-78099997D01*
X94773432Y-78118936D01*
X94782873Y-78138896D01*
X94790312Y-78159686D01*
X94795677Y-78181105D01*
X94798917Y-78202946D01*
X94800000Y-78225000D01*
X94800000Y-78675000D01*
X94798917Y-78697054D01*
X94795677Y-78718895D01*
X94790312Y-78740314D01*
X94782873Y-78761104D01*
X94773432Y-78781064D01*
X94762081Y-78800003D01*
X94748927Y-78817738D01*
X94734099Y-78834099D01*
X94717738Y-78848927D01*
X94700003Y-78862081D01*
X94681064Y-78873432D01*
X94661104Y-78882873D01*
X94640314Y-78890312D01*
X94618895Y-78895677D01*
X94597054Y-78898917D01*
X94575000Y-78900000D01*
X94025000Y-78900000D01*
X94002946Y-78898917D01*
X93981105Y-78895677D01*
X93959686Y-78890312D01*
X93938896Y-78882873D01*
X93918936Y-78873432D01*
X93899997Y-78862081D01*
X93882262Y-78848927D01*
X93865901Y-78834099D01*
X93851073Y-78817738D01*
X93837919Y-78800003D01*
X93826568Y-78781064D01*
X93817127Y-78761104D01*
X93809688Y-78740314D01*
X93804323Y-78718895D01*
X93801083Y-78697054D01*
X93800000Y-78675000D01*
X93800000Y-78225000D01*
X93801083Y-78202946D01*
X93804323Y-78181105D01*
X93809688Y-78159686D01*
X93817127Y-78138896D01*
X93826568Y-78118936D01*
X93837919Y-78099997D01*
X93851073Y-78082262D01*
X93865901Y-78065901D01*
X93882262Y-78051073D01*
X93899997Y-78037919D01*
X93918936Y-78026568D01*
X93938896Y-78017127D01*
X93959686Y-78009688D01*
X93981105Y-78004323D01*
X94002946Y-78001083D01*
X94025000Y-78000000D01*
X94575000Y-78000000D01*
X94597054Y-78001083D01*
X94597054Y-78001083D01*
G37*
D38*
X94300000Y-78450000D03*
D37*
G36*
X92997054Y-104101083D02*
X93018895Y-104104323D01*
X93040314Y-104109688D01*
X93061104Y-104117127D01*
X93081064Y-104126568D01*
X93100003Y-104137919D01*
X93117738Y-104151073D01*
X93134099Y-104165901D01*
X93148927Y-104182262D01*
X93162081Y-104199997D01*
X93173432Y-104218936D01*
X93182873Y-104238896D01*
X93190312Y-104259686D01*
X93195677Y-104281105D01*
X93198917Y-104302946D01*
X93200000Y-104325000D01*
X93200000Y-104775000D01*
X93198917Y-104797054D01*
X93195677Y-104818895D01*
X93190312Y-104840314D01*
X93182873Y-104861104D01*
X93173432Y-104881064D01*
X93162081Y-104900003D01*
X93148927Y-104917738D01*
X93134099Y-104934099D01*
X93117738Y-104948927D01*
X93100003Y-104962081D01*
X93081064Y-104973432D01*
X93061104Y-104982873D01*
X93040314Y-104990312D01*
X93018895Y-104995677D01*
X92997054Y-104998917D01*
X92975000Y-105000000D01*
X92425000Y-105000000D01*
X92402946Y-104998917D01*
X92381105Y-104995677D01*
X92359686Y-104990312D01*
X92338896Y-104982873D01*
X92318936Y-104973432D01*
X92299997Y-104962081D01*
X92282262Y-104948927D01*
X92265901Y-104934099D01*
X92251073Y-104917738D01*
X92237919Y-104900003D01*
X92226568Y-104881064D01*
X92217127Y-104861104D01*
X92209688Y-104840314D01*
X92204323Y-104818895D01*
X92201083Y-104797054D01*
X92200000Y-104775000D01*
X92200000Y-104325000D01*
X92201083Y-104302946D01*
X92204323Y-104281105D01*
X92209688Y-104259686D01*
X92217127Y-104238896D01*
X92226568Y-104218936D01*
X92237919Y-104199997D01*
X92251073Y-104182262D01*
X92265901Y-104165901D01*
X92282262Y-104151073D01*
X92299997Y-104137919D01*
X92318936Y-104126568D01*
X92338896Y-104117127D01*
X92359686Y-104109688D01*
X92381105Y-104104323D01*
X92402946Y-104101083D01*
X92425000Y-104100000D01*
X92975000Y-104100000D01*
X92997054Y-104101083D01*
X92997054Y-104101083D01*
G37*
D38*
X92700000Y-104550000D03*
D37*
G36*
X92997054Y-100001083D02*
X93018895Y-100004323D01*
X93040314Y-100009688D01*
X93061104Y-100017127D01*
X93081064Y-100026568D01*
X93100003Y-100037919D01*
X93117738Y-100051073D01*
X93134099Y-100065901D01*
X93148927Y-100082262D01*
X93162081Y-100099997D01*
X93173432Y-100118936D01*
X93182873Y-100138896D01*
X93190312Y-100159686D01*
X93195677Y-100181105D01*
X93198917Y-100202946D01*
X93200000Y-100225000D01*
X93200000Y-100675000D01*
X93198917Y-100697054D01*
X93195677Y-100718895D01*
X93190312Y-100740314D01*
X93182873Y-100761104D01*
X93173432Y-100781064D01*
X93162081Y-100800003D01*
X93148927Y-100817738D01*
X93134099Y-100834099D01*
X93117738Y-100848927D01*
X93100003Y-100862081D01*
X93081064Y-100873432D01*
X93061104Y-100882873D01*
X93040314Y-100890312D01*
X93018895Y-100895677D01*
X92997054Y-100898917D01*
X92975000Y-100900000D01*
X92425000Y-100900000D01*
X92402946Y-100898917D01*
X92381105Y-100895677D01*
X92359686Y-100890312D01*
X92338896Y-100882873D01*
X92318936Y-100873432D01*
X92299997Y-100862081D01*
X92282262Y-100848927D01*
X92265901Y-100834099D01*
X92251073Y-100817738D01*
X92237919Y-100800003D01*
X92226568Y-100781064D01*
X92217127Y-100761104D01*
X92209688Y-100740314D01*
X92204323Y-100718895D01*
X92201083Y-100697054D01*
X92200000Y-100675000D01*
X92200000Y-100225000D01*
X92201083Y-100202946D01*
X92204323Y-100181105D01*
X92209688Y-100159686D01*
X92217127Y-100138896D01*
X92226568Y-100118936D01*
X92237919Y-100099997D01*
X92251073Y-100082262D01*
X92265901Y-100065901D01*
X92282262Y-100051073D01*
X92299997Y-100037919D01*
X92318936Y-100026568D01*
X92338896Y-100017127D01*
X92359686Y-100009688D01*
X92381105Y-100004323D01*
X92402946Y-100001083D01*
X92425000Y-100000000D01*
X92975000Y-100000000D01*
X92997054Y-100001083D01*
X92997054Y-100001083D01*
G37*
D38*
X92700000Y-100450000D03*
D37*
G36*
X94597054Y-104101083D02*
X94618895Y-104104323D01*
X94640314Y-104109688D01*
X94661104Y-104117127D01*
X94681064Y-104126568D01*
X94700003Y-104137919D01*
X94717738Y-104151073D01*
X94734099Y-104165901D01*
X94748927Y-104182262D01*
X94762081Y-104199997D01*
X94773432Y-104218936D01*
X94782873Y-104238896D01*
X94790312Y-104259686D01*
X94795677Y-104281105D01*
X94798917Y-104302946D01*
X94800000Y-104325000D01*
X94800000Y-104775000D01*
X94798917Y-104797054D01*
X94795677Y-104818895D01*
X94790312Y-104840314D01*
X94782873Y-104861104D01*
X94773432Y-104881064D01*
X94762081Y-104900003D01*
X94748927Y-104917738D01*
X94734099Y-104934099D01*
X94717738Y-104948927D01*
X94700003Y-104962081D01*
X94681064Y-104973432D01*
X94661104Y-104982873D01*
X94640314Y-104990312D01*
X94618895Y-104995677D01*
X94597054Y-104998917D01*
X94575000Y-105000000D01*
X94025000Y-105000000D01*
X94002946Y-104998917D01*
X93981105Y-104995677D01*
X93959686Y-104990312D01*
X93938896Y-104982873D01*
X93918936Y-104973432D01*
X93899997Y-104962081D01*
X93882262Y-104948927D01*
X93865901Y-104934099D01*
X93851073Y-104917738D01*
X93837919Y-104900003D01*
X93826568Y-104881064D01*
X93817127Y-104861104D01*
X93809688Y-104840314D01*
X93804323Y-104818895D01*
X93801083Y-104797054D01*
X93800000Y-104775000D01*
X93800000Y-104325000D01*
X93801083Y-104302946D01*
X93804323Y-104281105D01*
X93809688Y-104259686D01*
X93817127Y-104238896D01*
X93826568Y-104218936D01*
X93837919Y-104199997D01*
X93851073Y-104182262D01*
X93865901Y-104165901D01*
X93882262Y-104151073D01*
X93899997Y-104137919D01*
X93918936Y-104126568D01*
X93938896Y-104117127D01*
X93959686Y-104109688D01*
X93981105Y-104104323D01*
X94002946Y-104101083D01*
X94025000Y-104100000D01*
X94575000Y-104100000D01*
X94597054Y-104101083D01*
X94597054Y-104101083D01*
G37*
D38*
X94300000Y-104550000D03*
D37*
G36*
X94597054Y-100001083D02*
X94618895Y-100004323D01*
X94640314Y-100009688D01*
X94661104Y-100017127D01*
X94681064Y-100026568D01*
X94700003Y-100037919D01*
X94717738Y-100051073D01*
X94734099Y-100065901D01*
X94748927Y-100082262D01*
X94762081Y-100099997D01*
X94773432Y-100118936D01*
X94782873Y-100138896D01*
X94790312Y-100159686D01*
X94795677Y-100181105D01*
X94798917Y-100202946D01*
X94800000Y-100225000D01*
X94800000Y-100675000D01*
X94798917Y-100697054D01*
X94795677Y-100718895D01*
X94790312Y-100740314D01*
X94782873Y-100761104D01*
X94773432Y-100781064D01*
X94762081Y-100800003D01*
X94748927Y-100817738D01*
X94734099Y-100834099D01*
X94717738Y-100848927D01*
X94700003Y-100862081D01*
X94681064Y-100873432D01*
X94661104Y-100882873D01*
X94640314Y-100890312D01*
X94618895Y-100895677D01*
X94597054Y-100898917D01*
X94575000Y-100900000D01*
X94025000Y-100900000D01*
X94002946Y-100898917D01*
X93981105Y-100895677D01*
X93959686Y-100890312D01*
X93938896Y-100882873D01*
X93918936Y-100873432D01*
X93899997Y-100862081D01*
X93882262Y-100848927D01*
X93865901Y-100834099D01*
X93851073Y-100817738D01*
X93837919Y-100800003D01*
X93826568Y-100781064D01*
X93817127Y-100761104D01*
X93809688Y-100740314D01*
X93804323Y-100718895D01*
X93801083Y-100697054D01*
X93800000Y-100675000D01*
X93800000Y-100225000D01*
X93801083Y-100202946D01*
X93804323Y-100181105D01*
X93809688Y-100159686D01*
X93817127Y-100138896D01*
X93826568Y-100118936D01*
X93837919Y-100099997D01*
X93851073Y-100082262D01*
X93865901Y-100065901D01*
X93882262Y-100051073D01*
X93899997Y-100037919D01*
X93918936Y-100026568D01*
X93938896Y-100017127D01*
X93959686Y-100009688D01*
X93981105Y-100004323D01*
X94002946Y-100001083D01*
X94025000Y-100000000D01*
X94575000Y-100000000D01*
X94597054Y-100001083D01*
X94597054Y-100001083D01*
G37*
D38*
X94300000Y-100450000D03*
D16*
X190750000Y-111600000D03*
X192250000Y-111600000D03*
D17*
X185600000Y-101600000D03*
X185600000Y-100100000D03*
D15*
X171250000Y-105000000D03*
X170150000Y-105000000D03*
D17*
X181000000Y-100050000D03*
X181000000Y-101550000D03*
X179500000Y-101550000D03*
X179500000Y-100050000D03*
D15*
X170150000Y-106800000D03*
X171250000Y-106800000D03*
D37*
G36*
X185059802Y-109625482D02*
X185069509Y-109626921D01*
X185079028Y-109629306D01*
X185088268Y-109632612D01*
X185097140Y-109636808D01*
X185105557Y-109641853D01*
X185113439Y-109647699D01*
X185120711Y-109654289D01*
X185127301Y-109661561D01*
X185133147Y-109669443D01*
X185138192Y-109677860D01*
X185142388Y-109686732D01*
X185145694Y-109695972D01*
X185148079Y-109705491D01*
X185149518Y-109715198D01*
X185150000Y-109725000D01*
X185150000Y-109925000D01*
X185149518Y-109934802D01*
X185148079Y-109944509D01*
X185145694Y-109954028D01*
X185142388Y-109963268D01*
X185138192Y-109972140D01*
X185133147Y-109980557D01*
X185127301Y-109988439D01*
X185120711Y-109995711D01*
X185113439Y-110002301D01*
X185105557Y-110008147D01*
X185097140Y-110013192D01*
X185088268Y-110017388D01*
X185079028Y-110020694D01*
X185069509Y-110023079D01*
X185059802Y-110024518D01*
X185050000Y-110025000D01*
X184795000Y-110025000D01*
X184785198Y-110024518D01*
X184775491Y-110023079D01*
X184765972Y-110020694D01*
X184756732Y-110017388D01*
X184747860Y-110013192D01*
X184739443Y-110008147D01*
X184731561Y-110002301D01*
X184724289Y-109995711D01*
X184717699Y-109988439D01*
X184711853Y-109980557D01*
X184706808Y-109972140D01*
X184702612Y-109963268D01*
X184699306Y-109954028D01*
X184696921Y-109944509D01*
X184695482Y-109934802D01*
X184695000Y-109925000D01*
X184695000Y-109725000D01*
X184695482Y-109715198D01*
X184696921Y-109705491D01*
X184699306Y-109695972D01*
X184702612Y-109686732D01*
X184706808Y-109677860D01*
X184711853Y-109669443D01*
X184717699Y-109661561D01*
X184724289Y-109654289D01*
X184731561Y-109647699D01*
X184739443Y-109641853D01*
X184747860Y-109636808D01*
X184756732Y-109632612D01*
X184765972Y-109629306D01*
X184775491Y-109626921D01*
X184785198Y-109625482D01*
X184795000Y-109625000D01*
X185050000Y-109625000D01*
X185059802Y-109625482D01*
X185059802Y-109625482D01*
G37*
D21*
X184922500Y-109825000D03*
D37*
G36*
X185059802Y-108975482D02*
X185069509Y-108976921D01*
X185079028Y-108979306D01*
X185088268Y-108982612D01*
X185097140Y-108986808D01*
X185105557Y-108991853D01*
X185113439Y-108997699D01*
X185120711Y-109004289D01*
X185127301Y-109011561D01*
X185133147Y-109019443D01*
X185138192Y-109027860D01*
X185142388Y-109036732D01*
X185145694Y-109045972D01*
X185148079Y-109055491D01*
X185149518Y-109065198D01*
X185150000Y-109075000D01*
X185150000Y-109275000D01*
X185149518Y-109284802D01*
X185148079Y-109294509D01*
X185145694Y-109304028D01*
X185142388Y-109313268D01*
X185138192Y-109322140D01*
X185133147Y-109330557D01*
X185127301Y-109338439D01*
X185120711Y-109345711D01*
X185113439Y-109352301D01*
X185105557Y-109358147D01*
X185097140Y-109363192D01*
X185088268Y-109367388D01*
X185079028Y-109370694D01*
X185069509Y-109373079D01*
X185059802Y-109374518D01*
X185050000Y-109375000D01*
X184795000Y-109375000D01*
X184785198Y-109374518D01*
X184775491Y-109373079D01*
X184765972Y-109370694D01*
X184756732Y-109367388D01*
X184747860Y-109363192D01*
X184739443Y-109358147D01*
X184731561Y-109352301D01*
X184724289Y-109345711D01*
X184717699Y-109338439D01*
X184711853Y-109330557D01*
X184706808Y-109322140D01*
X184702612Y-109313268D01*
X184699306Y-109304028D01*
X184696921Y-109294509D01*
X184695482Y-109284802D01*
X184695000Y-109275000D01*
X184695000Y-109075000D01*
X184695482Y-109065198D01*
X184696921Y-109055491D01*
X184699306Y-109045972D01*
X184702612Y-109036732D01*
X184706808Y-109027860D01*
X184711853Y-109019443D01*
X184717699Y-109011561D01*
X184724289Y-109004289D01*
X184731561Y-108997699D01*
X184739443Y-108991853D01*
X184747860Y-108986808D01*
X184756732Y-108982612D01*
X184765972Y-108979306D01*
X184775491Y-108976921D01*
X184785198Y-108975482D01*
X184795000Y-108975000D01*
X185050000Y-108975000D01*
X185059802Y-108975482D01*
X185059802Y-108975482D01*
G37*
D21*
X184922500Y-109175000D03*
D37*
G36*
X185059802Y-108325482D02*
X185069509Y-108326921D01*
X185079028Y-108329306D01*
X185088268Y-108332612D01*
X185097140Y-108336808D01*
X185105557Y-108341853D01*
X185113439Y-108347699D01*
X185120711Y-108354289D01*
X185127301Y-108361561D01*
X185133147Y-108369443D01*
X185138192Y-108377860D01*
X185142388Y-108386732D01*
X185145694Y-108395972D01*
X185148079Y-108405491D01*
X185149518Y-108415198D01*
X185150000Y-108425000D01*
X185150000Y-108625000D01*
X185149518Y-108634802D01*
X185148079Y-108644509D01*
X185145694Y-108654028D01*
X185142388Y-108663268D01*
X185138192Y-108672140D01*
X185133147Y-108680557D01*
X185127301Y-108688439D01*
X185120711Y-108695711D01*
X185113439Y-108702301D01*
X185105557Y-108708147D01*
X185097140Y-108713192D01*
X185088268Y-108717388D01*
X185079028Y-108720694D01*
X185069509Y-108723079D01*
X185059802Y-108724518D01*
X185050000Y-108725000D01*
X184795000Y-108725000D01*
X184785198Y-108724518D01*
X184775491Y-108723079D01*
X184765972Y-108720694D01*
X184756732Y-108717388D01*
X184747860Y-108713192D01*
X184739443Y-108708147D01*
X184731561Y-108702301D01*
X184724289Y-108695711D01*
X184717699Y-108688439D01*
X184711853Y-108680557D01*
X184706808Y-108672140D01*
X184702612Y-108663268D01*
X184699306Y-108654028D01*
X184696921Y-108644509D01*
X184695482Y-108634802D01*
X184695000Y-108625000D01*
X184695000Y-108425000D01*
X184695482Y-108415198D01*
X184696921Y-108405491D01*
X184699306Y-108395972D01*
X184702612Y-108386732D01*
X184706808Y-108377860D01*
X184711853Y-108369443D01*
X184717699Y-108361561D01*
X184724289Y-108354289D01*
X184731561Y-108347699D01*
X184739443Y-108341853D01*
X184747860Y-108336808D01*
X184756732Y-108332612D01*
X184765972Y-108329306D01*
X184775491Y-108326921D01*
X184785198Y-108325482D01*
X184795000Y-108325000D01*
X185050000Y-108325000D01*
X185059802Y-108325482D01*
X185059802Y-108325482D01*
G37*
D21*
X184922500Y-108525000D03*
D37*
G36*
X183214802Y-108325482D02*
X183224509Y-108326921D01*
X183234028Y-108329306D01*
X183243268Y-108332612D01*
X183252140Y-108336808D01*
X183260557Y-108341853D01*
X183268439Y-108347699D01*
X183275711Y-108354289D01*
X183282301Y-108361561D01*
X183288147Y-108369443D01*
X183293192Y-108377860D01*
X183297388Y-108386732D01*
X183300694Y-108395972D01*
X183303079Y-108405491D01*
X183304518Y-108415198D01*
X183305000Y-108425000D01*
X183305000Y-108625000D01*
X183304518Y-108634802D01*
X183303079Y-108644509D01*
X183300694Y-108654028D01*
X183297388Y-108663268D01*
X183293192Y-108672140D01*
X183288147Y-108680557D01*
X183282301Y-108688439D01*
X183275711Y-108695711D01*
X183268439Y-108702301D01*
X183260557Y-108708147D01*
X183252140Y-108713192D01*
X183243268Y-108717388D01*
X183234028Y-108720694D01*
X183224509Y-108723079D01*
X183214802Y-108724518D01*
X183205000Y-108725000D01*
X182950000Y-108725000D01*
X182940198Y-108724518D01*
X182930491Y-108723079D01*
X182920972Y-108720694D01*
X182911732Y-108717388D01*
X182902860Y-108713192D01*
X182894443Y-108708147D01*
X182886561Y-108702301D01*
X182879289Y-108695711D01*
X182872699Y-108688439D01*
X182866853Y-108680557D01*
X182861808Y-108672140D01*
X182857612Y-108663268D01*
X182854306Y-108654028D01*
X182851921Y-108644509D01*
X182850482Y-108634802D01*
X182850000Y-108625000D01*
X182850000Y-108425000D01*
X182850482Y-108415198D01*
X182851921Y-108405491D01*
X182854306Y-108395972D01*
X182857612Y-108386732D01*
X182861808Y-108377860D01*
X182866853Y-108369443D01*
X182872699Y-108361561D01*
X182879289Y-108354289D01*
X182886561Y-108347699D01*
X182894443Y-108341853D01*
X182902860Y-108336808D01*
X182911732Y-108332612D01*
X182920972Y-108329306D01*
X182930491Y-108326921D01*
X182940198Y-108325482D01*
X182950000Y-108325000D01*
X183205000Y-108325000D01*
X183214802Y-108325482D01*
X183214802Y-108325482D01*
G37*
D21*
X183077500Y-108525000D03*
D37*
G36*
X183214802Y-108975482D02*
X183224509Y-108976921D01*
X183234028Y-108979306D01*
X183243268Y-108982612D01*
X183252140Y-108986808D01*
X183260557Y-108991853D01*
X183268439Y-108997699D01*
X183275711Y-109004289D01*
X183282301Y-109011561D01*
X183288147Y-109019443D01*
X183293192Y-109027860D01*
X183297388Y-109036732D01*
X183300694Y-109045972D01*
X183303079Y-109055491D01*
X183304518Y-109065198D01*
X183305000Y-109075000D01*
X183305000Y-109275000D01*
X183304518Y-109284802D01*
X183303079Y-109294509D01*
X183300694Y-109304028D01*
X183297388Y-109313268D01*
X183293192Y-109322140D01*
X183288147Y-109330557D01*
X183282301Y-109338439D01*
X183275711Y-109345711D01*
X183268439Y-109352301D01*
X183260557Y-109358147D01*
X183252140Y-109363192D01*
X183243268Y-109367388D01*
X183234028Y-109370694D01*
X183224509Y-109373079D01*
X183214802Y-109374518D01*
X183205000Y-109375000D01*
X182950000Y-109375000D01*
X182940198Y-109374518D01*
X182930491Y-109373079D01*
X182920972Y-109370694D01*
X182911732Y-109367388D01*
X182902860Y-109363192D01*
X182894443Y-109358147D01*
X182886561Y-109352301D01*
X182879289Y-109345711D01*
X182872699Y-109338439D01*
X182866853Y-109330557D01*
X182861808Y-109322140D01*
X182857612Y-109313268D01*
X182854306Y-109304028D01*
X182851921Y-109294509D01*
X182850482Y-109284802D01*
X182850000Y-109275000D01*
X182850000Y-109075000D01*
X182850482Y-109065198D01*
X182851921Y-109055491D01*
X182854306Y-109045972D01*
X182857612Y-109036732D01*
X182861808Y-109027860D01*
X182866853Y-109019443D01*
X182872699Y-109011561D01*
X182879289Y-109004289D01*
X182886561Y-108997699D01*
X182894443Y-108991853D01*
X182902860Y-108986808D01*
X182911732Y-108982612D01*
X182920972Y-108979306D01*
X182930491Y-108976921D01*
X182940198Y-108975482D01*
X182950000Y-108975000D01*
X183205000Y-108975000D01*
X183214802Y-108975482D01*
X183214802Y-108975482D01*
G37*
D21*
X183077500Y-109175000D03*
D37*
G36*
X183214802Y-109625482D02*
X183224509Y-109626921D01*
X183234028Y-109629306D01*
X183243268Y-109632612D01*
X183252140Y-109636808D01*
X183260557Y-109641853D01*
X183268439Y-109647699D01*
X183275711Y-109654289D01*
X183282301Y-109661561D01*
X183288147Y-109669443D01*
X183293192Y-109677860D01*
X183297388Y-109686732D01*
X183300694Y-109695972D01*
X183303079Y-109705491D01*
X183304518Y-109715198D01*
X183305000Y-109725000D01*
X183305000Y-109925000D01*
X183304518Y-109934802D01*
X183303079Y-109944509D01*
X183300694Y-109954028D01*
X183297388Y-109963268D01*
X183293192Y-109972140D01*
X183288147Y-109980557D01*
X183282301Y-109988439D01*
X183275711Y-109995711D01*
X183268439Y-110002301D01*
X183260557Y-110008147D01*
X183252140Y-110013192D01*
X183243268Y-110017388D01*
X183234028Y-110020694D01*
X183224509Y-110023079D01*
X183214802Y-110024518D01*
X183205000Y-110025000D01*
X182950000Y-110025000D01*
X182940198Y-110024518D01*
X182930491Y-110023079D01*
X182920972Y-110020694D01*
X182911732Y-110017388D01*
X182902860Y-110013192D01*
X182894443Y-110008147D01*
X182886561Y-110002301D01*
X182879289Y-109995711D01*
X182872699Y-109988439D01*
X182866853Y-109980557D01*
X182861808Y-109972140D01*
X182857612Y-109963268D01*
X182854306Y-109954028D01*
X182851921Y-109944509D01*
X182850482Y-109934802D01*
X182850000Y-109925000D01*
X182850000Y-109725000D01*
X182850482Y-109715198D01*
X182851921Y-109705491D01*
X182854306Y-109695972D01*
X182857612Y-109686732D01*
X182861808Y-109677860D01*
X182866853Y-109669443D01*
X182872699Y-109661561D01*
X182879289Y-109654289D01*
X182886561Y-109647699D01*
X182894443Y-109641853D01*
X182902860Y-109636808D01*
X182911732Y-109632612D01*
X182920972Y-109629306D01*
X182930491Y-109626921D01*
X182940198Y-109625482D01*
X182950000Y-109625000D01*
X183205000Y-109625000D01*
X183214802Y-109625482D01*
X183214802Y-109625482D01*
G37*
D21*
X183077500Y-109825000D03*
D37*
G36*
X184455292Y-108975506D02*
X184465484Y-108977018D01*
X184475480Y-108979521D01*
X184485182Y-108982993D01*
X184494497Y-108987398D01*
X184503335Y-108992696D01*
X184511611Y-108998834D01*
X184519246Y-109005754D01*
X184526166Y-109013389D01*
X184532304Y-109021665D01*
X184537602Y-109030503D01*
X184542007Y-109039818D01*
X184545479Y-109049520D01*
X184547982Y-109059516D01*
X184549494Y-109069708D01*
X184550000Y-109080000D01*
X184550000Y-109920000D01*
X184549494Y-109930292D01*
X184547982Y-109940484D01*
X184545479Y-109950480D01*
X184542007Y-109960182D01*
X184537602Y-109969497D01*
X184532304Y-109978335D01*
X184526166Y-109986611D01*
X184519246Y-109994246D01*
X184511611Y-110001166D01*
X184503335Y-110007304D01*
X184494497Y-110012602D01*
X184485182Y-110017007D01*
X184475480Y-110020479D01*
X184465484Y-110022982D01*
X184455292Y-110024494D01*
X184445000Y-110025000D01*
X183555000Y-110025000D01*
X183544708Y-110024494D01*
X183534516Y-110022982D01*
X183524520Y-110020479D01*
X183514818Y-110017007D01*
X183505503Y-110012602D01*
X183496665Y-110007304D01*
X183488389Y-110001166D01*
X183480754Y-109994246D01*
X183473834Y-109986611D01*
X183467696Y-109978335D01*
X183462398Y-109969497D01*
X183457993Y-109960182D01*
X183454521Y-109950480D01*
X183452018Y-109940484D01*
X183450506Y-109930292D01*
X183450000Y-109920000D01*
X183450000Y-109080000D01*
X183450506Y-109069708D01*
X183452018Y-109059516D01*
X183454521Y-109049520D01*
X183457993Y-109039818D01*
X183462398Y-109030503D01*
X183467696Y-109021665D01*
X183473834Y-109013389D01*
X183480754Y-109005754D01*
X183488389Y-108998834D01*
X183496665Y-108992696D01*
X183505503Y-108987398D01*
X183514818Y-108982993D01*
X183524520Y-108979521D01*
X183534516Y-108977018D01*
X183544708Y-108975506D01*
X183555000Y-108975000D01*
X184445000Y-108975000D01*
X184455292Y-108975506D01*
X184455292Y-108975506D01*
G37*
D39*
X184000000Y-109500000D03*
D37*
G36*
X184288921Y-108325193D02*
X184292804Y-108325769D01*
X184296611Y-108326722D01*
X184300307Y-108328045D01*
X184303856Y-108329723D01*
X184307223Y-108331741D01*
X184310376Y-108334080D01*
X184313284Y-108336716D01*
X184315920Y-108339624D01*
X184318259Y-108342777D01*
X184320277Y-108346144D01*
X184321955Y-108349693D01*
X184323278Y-108353389D01*
X184324231Y-108357196D01*
X184324807Y-108361079D01*
X184325000Y-108365000D01*
X184325000Y-108685000D01*
X184324807Y-108688921D01*
X184324231Y-108692804D01*
X184323278Y-108696611D01*
X184321955Y-108700307D01*
X184320277Y-108703856D01*
X184318259Y-108707223D01*
X184315920Y-108710376D01*
X184313284Y-108713284D01*
X184310376Y-108715920D01*
X184307223Y-108718259D01*
X184303856Y-108720277D01*
X184300307Y-108721955D01*
X184296611Y-108723278D01*
X184292804Y-108724231D01*
X184288921Y-108724807D01*
X184285000Y-108725000D01*
X183515000Y-108725000D01*
X183511079Y-108724807D01*
X183507196Y-108724231D01*
X183503389Y-108723278D01*
X183499693Y-108721955D01*
X183496144Y-108720277D01*
X183492777Y-108718259D01*
X183489624Y-108715920D01*
X183486716Y-108713284D01*
X183484080Y-108710376D01*
X183481741Y-108707223D01*
X183479723Y-108703856D01*
X183478045Y-108700307D01*
X183476722Y-108696611D01*
X183475769Y-108692804D01*
X183475193Y-108688921D01*
X183475000Y-108685000D01*
X183475000Y-108365000D01*
X183475193Y-108361079D01*
X183475769Y-108357196D01*
X183476722Y-108353389D01*
X183478045Y-108349693D01*
X183479723Y-108346144D01*
X183481741Y-108342777D01*
X183484080Y-108339624D01*
X183486716Y-108336716D01*
X183489624Y-108334080D01*
X183492777Y-108331741D01*
X183496144Y-108329723D01*
X183499693Y-108328045D01*
X183503389Y-108326722D01*
X183507196Y-108325769D01*
X183511079Y-108325193D01*
X183515000Y-108325000D01*
X184285000Y-108325000D01*
X184288921Y-108325193D01*
X184288921Y-108325193D01*
G37*
D21*
X183900000Y-108525000D03*
D20*
X184750000Y-103850000D03*
X185650000Y-103850000D03*
X187850000Y-103850000D03*
X186950000Y-103850000D03*
D22*
X183900000Y-101600000D03*
X183500000Y-101600000D03*
X183100000Y-101600000D03*
X182700000Y-101600000D03*
X183900000Y-101200000D03*
X183500000Y-101200000D03*
X183100000Y-101200000D03*
X182700000Y-101200000D03*
X183900000Y-100800000D03*
X183500000Y-100800000D03*
X183100000Y-100800000D03*
X182700000Y-100800000D03*
X183900000Y-100400000D03*
X183500000Y-100400000D03*
X183100000Y-100400000D03*
X182700000Y-100400000D03*
X183900000Y-100000000D03*
X183500000Y-100000000D03*
X183100000Y-100000000D03*
X182700000Y-100000000D03*
D10*
X173100000Y-105050000D03*
X173100000Y-106000000D03*
X173100000Y-106950000D03*
X175300000Y-106950000D03*
X175300000Y-105050000D03*
X168200000Y-107050000D03*
X168200000Y-106100000D03*
X168200000Y-105150000D03*
X166000000Y-105150000D03*
X166000000Y-107050000D03*
D18*
X179600000Y-97500000D03*
X182300000Y-97500000D03*
D40*
X188575000Y-107150000D03*
X187925000Y-107150000D03*
X187275000Y-107150000D03*
X186625000Y-107150000D03*
X186625000Y-111450000D03*
X187275000Y-111450000D03*
X187925000Y-111450000D03*
X188575000Y-111450000D03*
D19*
X184900000Y-97450000D03*
X184900000Y-98350000D03*
M02*
